PathFileType	4	(X/Y/Z)	KinectSkeleton.trc																																																	
DataRate	CameraRate	NumFrames	NumMarkers	Units	OrigDataRate	OrigDataStartFrame	OrigNumFrames																																													
60	60	8	17	mm	60	434	300																																													
Frame#	Time	Neck			ShoulderMid			R.Shoulder			L.Shoulder			R.Elbow			L.Elbow			R.Wrist			L.Wrist			HipCenter			R.Hip			L.Hip			R.Knee			L.Knee			R.Ankle			L.Ankle			R.Foot			L.Foot		
		X1	Y1	Z1	X2	Y2	Z2	X3	Y3	Z3	X4	Y4	Z4	X5	Y5	Z5	X6	Y6	Z6	X7	Y7	Z7	X8	Y8	Z8	X9	Y9	Z9	X10	Y10	Z10	X11	Y11	Z11	X12	Y12	Z12	X13	Y13	Z13	X14	Y14	Z14	X15	Y15	Z15	X16	Y16	Z16	X17	Y17	Z17
																																																				
434	29.408	-1215.058	1467.196	426.984	-1215.058	1467.196	426.984	-1190.552	1426.653	598.983	-1141.651	1374.63	277.496	-968.987	1239.154	576.986	-934.891	1184.254	328.687	-900.405	1331.204	363.024	-742.116	1229.405	463.932	-1207.409	914.027	476.072	-1223.548	918.787	559.392	-1189.512	908.747	383.674	-1284.619	512.16	602.283	-1247.519	501.062	342.303	-1388.693	126.567	617.652	-1331.009	115.973	308	-1264.742	24.755	695.246	-1162.988	20.156	317.801
435	29.47	-1212.916	1466.037	427.004	-1212.916	1466.037	427.004	-1190.015	1425.718	598.923	-1138.631	1375.064	277.641	-968.172	1239.108	576.907	-934.224	1182.661	328.742	-905.832	1334.021	362.626	-743.975	1230.574	466.074	-1208.692	913.44	476.045	-1224.891	918.398	559.234	-1190.728	907.941	383.791	-1287.202	512.495	602.288	-1246.909	500.531	342.295	-1391.517	127.499	618.172	-1328.711	115.596	307.824	-1265.829	27.725	695.112	-1162.52	17.169	318.225
436	29.545	-1218.024	1468.808	427.893	-1218.024	1468.808	427.893	-1187.377	1429.381	599.026	-1147.735	1372.918	278.304	-968.516	1238.31	577.4	-944.91	1178.214	330.317	-913.487	1333.255	360.571	-749.232	1231.786	458.498	-1208.831	915.187	475.949	-1224.428	919.41	559.474	-1191.534	910.504	383.323	-1288.567	512.812	601.557	-1246.596	501.986	342.625	-1390.963	126.49	618.65	-1327.524	115.858	309.997	-1264.618	25.061	693.176	-1159.635	19.347	318.428
437	29.607	-1214.211	1465.982	430.728	-1214.211	1465.982	430.728	-1189.895	1428.04	602.314	-1145.197	1372.326	280.003	-970.311	1239.964	576.505	-935.421	1186.359	330.666	-916.201	1335.218	360.577	-741.38	1240.705	459.368	-1208.652	914.035	475.904	-1224.844	918.135	559.005	-1190.695	909.489	383.749	-1285.179	512.565	601.783	-1247.4	502.751	342.855	-1389.11	128.112	617.554	-1329.073	118.289	309.945	-1265.106	26.85	694.635	-1163.778	18.712	317.676
438	29.677	-1215.025	1464.099	431.122	-1215.025	1464.099	431.122	-1188.332	1424.628	601.896	-1146.589	1372.584	279.518	-967.284	1238.969	576.468	-937.141	1185.832	325.82	-924.497	1337.351	359.85	-748.681	1245.981	459.409	-1206.862	913.078	476.138	-1223.358	917.06	559.043	-1188.569	908.662	384.201	-1285.701	512.489	601.851	-1245.548	502.724	342.615	-1388.232	128.34	617.576	-1328.497	119.35	308.043	-1266.187	26.021	695.706	-1164.077	19.178	318.366
439	29.744	-1214.856	1465.538	431.566	-1214.856	1465.538	431.566	-1189.309	1427.213	602.911	-1148.446	1372.635	279.354	-969.578	1239.539	576.652	-946.702	1177.632	328.022	-924.121	1337.678	360.124	-756.839	1234.691	461.526	-1207.245	913.852	476.575	-1224.131	917.755	559.515	-1188.52	909.523	384.598	-1285.332	512.51	602.649	-1245.91	503.139	342.718	-1390.807	128.599	617.567	-1329.226	119.344	307.967	-1268.915	25.411	695.307	-1164.704	18.832	317.954
440	29.806	-1216.45	1467.086	431.59	-1216.45	1467.086	431.59	-1197.328	1430.041	604.613	-1144.802	1372.778	281.851	-976.043	1242.975	580.227	-935.229	1185.371	330.862	-929.2	1336.842	361.527	-745.084	1235.955	467.459	-1207.788	914.359	476.696	-1224.429	917.968	559.884	-1189.333	910.357	384.443	-1286.371	511.84	602.123	-1247.274	503.172	342.353	-1390.19	126.626	617.948	-1331.762	118.795	307.242	-1265.687	26.086	695.894	-1165.966	19.624	317.597
441	29.868	-1217.077	1463.591	431.925	-1217.077	1463.591	431.925	-1192.749	1426.087	603.634	-1147.398	1371.294	281.08	-971.209	1240.333	580.324	-936.654	1186.401	330.416	-921.098	1333.471	362.72	-749.848	1240.016	469.381	-1206.603	912.329	476.183	-1222.648	915.563	559.284	-1188.81	908.743	384.026	-1289.42	511.096	599.855	-1246.724	502.691	341.229	-1384.996	125.018	620.396	-1330.858	119.355	305.143	-1260.272	23.567	695.736	-1166.968	18.312	318.254
